<svg width="20" height="20" viewBox="0 0 20 20" fill="black" xmlns="http://www.w3.org/2000/svg">
<path id="Vector" d="M1.81815 14.5453H18.1818C18.6839 14.5453 19.0909 14.9523 19.0909 15.4544C19.0909 15.9206 18.74 16.3049 18.2878 16.3574L18.1818 16.3635H1.81815C1.31608 16.3635 0.909058 15.9565 0.909058 15.4544C0.909058 14.9882 1.26 14.604 1.71213 14.5514L1.81815 14.5453ZM1.81804 9.09078L18.1817 9.08878C18.6838 9.08878 19.0909 9.49569 19.0909 9.99778C19.0909 10.464 18.7401 10.8483 18.2879 10.9009L18.1819 10.907L1.81826 10.909C1.31618 10.909 0.909058 10.502 0.909058 9.99996C0.909058 9.53378 1.25991 9.1495 1.71202 9.09687L1.81804 9.09078ZM1.81815 3.63623H18.1818C18.6839 3.63623 19.0909 4.04325 19.0909 4.54532C19.0909 5.01154 18.74 5.39578 18.2878 5.44829L18.1818 5.45441H1.81815C1.31608 5.45441 0.909058 5.04739 0.909058 4.54532C0.909058 4.0791 1.26 3.69486 1.71213 3.64235L1.81815 3.63623Z"/>
</svg>