<svg width="20" height="20" viewBox="0 0 20 20" fill="none" xmlns="http://www.w3.org/2000/svg">
<g id="Cart / undefined / Glyph: undefined">
<path id="Vector" d="M0.5 2.25C0.5 1.83579 0.83579 1.5 1.25 1.5H1.80826C2.75873 1.5 3.32782 2.13899 3.65325 2.73299C3.87016 3.12894 4.02708 3.58818 4.14982 4.00395C4.18306 4.00134 4.21674 4 4.2508 4H16.7481C17.5783 4 18.1778 4.79442 17.9502 5.5928L16.1224 12.0019C15.7856 13.1832 14.7062 13.9978 13.4779 13.9978H7.52977C6.29128 13.9978 5.2056 13.1699 4.87783 11.9756L4.11734 9.2045L2.85874 4.95578L2.8567 4.94834C2.701 4.38051 2.55487 3.85005 2.33773 3.4537C2.12686 3.0688 1.95877 3 1.80826 3H1.25C0.83579 3 0.5 2.66421 0.5 2.25ZM5.57283 8.8403L6.32434 11.5786C6.47333 12.1215 6.96682 12.4978 7.52977 12.4978H13.4779C14.0362 12.4978 14.5268 12.1275 14.68 11.5906L16.4168 5.5H4.58549L5.55906 8.7868C5.56434 8.8046 5.56892 8.8224 5.57283 8.8403ZM9 17C9 18.1046 8.1046 19 7 19C5.89543 19 5 18.1046 5 17C5 15.8954 5.89543 15 7 15C8.1046 15 9 15.8954 9 17ZM7.5 17C7.5 16.7239 7.27614 16.5 7 16.5C6.72386 16.5 6.5 16.7239 6.5 17C6.5 17.2761 6.72386 17.5 7 17.5C7.27614 17.5 7.5 17.2761 7.5 17ZM16 17C16 18.1046 15.1046 19 14 19C12.8954 19 12 18.1046 12 17C12 15.8954 12.8954 15 14 15C15.1046 15 16 15.8954 16 17ZM14.5 17C14.5 16.7239 14.2761 16.5 14 16.5C13.7239 16.5 13.5 16.7239 13.5 17C13.5 17.2761 13.7239 17.5 14 17.5C14.2761 17.5 14.5 17.2761 14.5 17Z" fill="#212121"/>
</g>
</svg>
