<svg width="90" height="19" viewBox="0 0 90 19" fill="none" xmlns="http://www.w3.org/2000/svg">
<path d="M81.7621 4.21191C84.6061 4.21191 86.6821 4.87791 87.9901 6.20991C88.5301 6.76191 88.9201 7.40391 89.1601 8.13591C89.4001 8.85591 89.5201 9.61191 89.5201 10.4039C89.5201 11.6999 89.2741 12.8639 88.7821 13.8959C88.1941 15.1319 87.3001 16.1039 86.1001 16.8119C84.7201 17.6279 82.9921 18.0359 80.9161 18.0359H80.1241C77.2681 18.0359 75.1921 17.3459 73.8961 15.9659C72.8641 14.8859 72.3481 13.4639 72.3481 11.6999C72.3481 10.4639 72.6001 9.33591 73.1041 8.31592C73.7161 7.06791 74.6041 6.10791 75.7681 5.43591C77.1841 4.61991 78.9181 4.21191 80.9701 4.21191H81.7621ZM85.1641 10.4579C85.1641 9.62991 84.9181 8.96991 84.4261 8.47791C83.7661 7.84191 82.7401 7.52391 81.3481 7.52391C79.6681 7.52391 78.4261 7.99791 77.6221 8.94591C77.3101 9.31791 77.0821 9.73791 76.9381 10.2059C76.7941 10.6739 76.7221 11.1479 76.7221 11.6279C76.7221 12.4799 76.9741 13.1639 77.4781 13.6799C78.1141 14.3519 79.1281 14.6879 80.5201 14.6879C81.8161 14.6879 82.8541 14.4059 83.6341 13.8419C84.2221 13.4339 84.6481 12.8399 84.9121 12.0599C85.0801 11.5679 85.1641 11.0339 85.1641 10.4579Z" fill="black"/>
<path d="M67.8324 0L67.5264 1.53C67.4424 2.046 67.2744 2.454 67.0224 2.754C66.7104 3.15 66.2544 3.348 65.6544 3.348H65.6184C65.2824 3.348 64.9644 3.306 64.6644 3.222C64.3644 3.126 63.9624 2.964 63.4584 2.736C63.0384 2.556 62.8164 2.46 62.7924 2.448C62.6124 2.388 62.4744 2.358 62.3784 2.358C62.2824 2.358 62.2104 2.394 62.1624 2.466C62.1144 2.538 62.0724 2.652 62.0364 2.808L61.8924 3.474H59.6964L59.9844 1.962C60.0684 1.47 60.2424 1.056 60.5064 0.72C60.8424 0.324 61.2984 0.126 61.8744 0.126H61.9104C62.2224 0.126 62.5164 0.168 62.7924 0.252C63.0804 0.336 63.5064 0.498 64.0704 0.738C64.4904 0.918 64.7124 1.014 64.7364 1.026C64.9164 1.086 65.0484 1.116 65.1324 1.116C65.2404 1.116 65.3184 1.08 65.3664 1.008C65.4264 0.936 65.4684 0.828 65.4924 0.684L65.6184 0H67.8324ZM64.5024 17.82L58.5624 9.36L56.9244 17.82H52.8204L55.4304 4.428H59.7324L65.4564 12.744L67.0764 4.428H71.1624L68.5524 17.82H64.5024Z" fill="black"/>
<path d="M43.8813 4.21191C46.7253 4.21191 48.8013 4.87791 50.1093 6.20991C50.6493 6.76191 51.0393 7.40391 51.2793 8.13591C51.5193 8.85591 51.6393 9.61191 51.6393 10.4039C51.6393 11.6999 51.3933 12.8639 50.9013 13.8959C50.3133 15.1319 49.4193 16.1039 48.2193 16.8119C46.8393 17.6279 45.1113 18.0359 43.0353 18.0359H42.2433C39.3873 18.0359 37.3113 17.3459 36.0153 15.9659C34.9833 14.8859 34.4673 13.4639 34.4673 11.6999C34.4673 10.4639 34.7193 9.33591 35.2233 8.31592C35.8353 7.06791 36.7233 6.10791 37.8873 5.43591C39.3033 4.61991 41.0373 4.21191 43.0893 4.21191H43.8813ZM47.2833 10.4579C47.2833 9.62991 47.0373 8.96991 46.5453 8.47791C45.8853 7.84191 44.8593 7.52391 43.4673 7.52391C41.7873 7.52391 40.5453 7.99791 39.7413 8.94591C39.4293 9.31791 39.2013 9.73791 39.0573 10.2059C38.9133 10.6739 38.8413 11.1479 38.8413 11.6279C38.8413 12.4799 39.0933 13.1639 39.5973 13.6799C40.2333 14.3519 41.2473 14.6879 42.6393 14.6879C43.9353 14.6879 44.9733 14.4059 45.7533 13.8419C46.3413 13.4339 46.7673 12.8399 47.0313 12.0599C47.1993 11.5679 47.2833 11.0339 47.2833 10.4579Z" fill="black"/>
<path d="M22.1624 17.82L24.1064 7.77598H18.9404L19.5884 4.42798H34.0964L33.4484 7.77598H28.3004L26.3384 17.82H22.1624Z" fill="black"/>
<path d="M9.69183 4.21191C12.5358 4.21191 14.6118 4.87791 15.9198 6.20991C16.4598 6.76191 16.8498 7.40391 17.0898 8.13591C17.3298 8.85591 17.4498 9.61191 17.4498 10.4039C17.4498 11.6999 17.2038 12.8639 16.7118 13.8959C16.1238 15.1319 15.2298 16.1039 14.0298 16.8119C12.6498 17.6279 10.9218 18.0359 8.84583 18.0359H8.05383C5.19783 18.0359 3.12183 17.3459 1.82583 15.9659C0.793832 14.8859 0.277832 13.4639 0.277832 11.6999C0.277832 10.4639 0.529832 9.33591 1.03383 8.31592C1.64583 7.06791 2.53383 6.10791 3.69783 5.43591C5.11383 4.61991 6.84783 4.21191 8.89983 4.21191H9.69183ZM13.0938 10.4579C13.0938 9.62991 12.8478 8.96991 12.3558 8.47791C11.6958 7.84191 10.6698 7.52391 9.27783 7.52391C7.59783 7.52391 6.35583 7.99791 5.55183 8.94591C5.23983 9.31791 5.01183 9.73791 4.86783 10.2059C4.72383 10.6739 4.65183 11.1479 4.65183 11.6279C4.65183 12.4799 4.90383 13.1639 5.40783 13.6799C6.04383 14.3519 7.05783 14.6879 8.44983 14.6879C9.74583 14.6879 10.7838 14.4059 11.5638 13.8419C12.1518 13.4339 12.5778 12.8399 12.8418 12.0599C13.0098 11.5679 13.0938 11.0339 13.0938 10.4579Z" fill="black"/>
</svg>
