<svg width="20" height="20" viewBox="0 0 20 20" fill="none" xmlns="http://www.w3.org/2000/svg">
<g clip-path="url(#clip0_638_86)">
<path d="M7.84 0.0100098C12.1644 0.0100098 15.67 3.51563 15.67 7.84001C15.67 9.71046 15.0141 11.4277 13.9199 12.7743L19.2127 18.0673C19.5291 18.3836 19.5291 18.8964 19.2127 19.2127C18.9252 19.5003 18.4752 19.5265 18.1581 19.2911L18.0673 19.2127L12.7743 13.9199C11.4277 15.0141 9.71046 15.67 7.84 15.67C3.51562 15.67 0.0100098 12.1644 0.0100098 7.84001C0.0100098 3.51563 3.51562 0.0100098 7.84 0.0100098ZM7.84 1.63001C4.41032 1.63001 1.63001 4.41032 1.63001 7.84001C1.63001 11.2697 4.41032 14.05 7.84 14.05C11.2697 14.05 14.05 11.2697 14.05 7.84001C14.05 4.41032 11.2697 1.63001 7.84 1.63001Z" fill="#212121"/>
</g>
<defs>
<clipPath id="clip0_638_86">
<rect width="20" height="20" fill="white"/>
</clipPath>
</defs>
</svg>
