<svg width="20" height="20" viewBox="0 0 20 20" fill="none" xmlns="http://www.w3.org/2000/svg">
<g id="Person / undefined / Glyph: undefined" clip-path="url(#clip0_353_3921)">
<path id="Vector" d="M15.7545 12.0002C16.9966 12.0002 18.0034 13.007 18.0034 14.2491V14.8245C18.0034 15.7188 17.6838 16.5836 17.1023 17.263C15.5329 19.0965 13.1457 20.0013 10.0004 20.0013C6.8545 20.0013 4.46849 19.0962 2.90219 17.2619C2.32242 16.583 2.00391 15.7195 2.00391 14.8267V14.2491C2.00391 13.007 3.01076 12.0002 4.25278 12.0002H15.7545ZM15.7545 13.5002H4.25278C3.83919 13.5002 3.50391 13.8355 3.50391 14.2491V14.8267C3.50391 15.3624 3.69502 15.8805 4.04287 16.2878C5.29618 17.7555 7.26206 18.5013 10.0004 18.5013C12.7387 18.5013 14.7063 17.7555 15.9627 16.2876C16.3117 15.8799 16.5034 15.361 16.5034 14.8245V14.2491C16.5034 13.8355 16.1681 13.5002 15.7545 13.5002ZM10.0004 0.00488281C12.7618 0.00488281 15.0004 2.24346 15.0004 5.00488C15.0004 7.76631 12.7618 10.0049 10.0004 10.0049C7.23894 10.0049 5.00036 7.76631 5.00036 5.00488C5.00036 2.24346 7.23894 0.00488281 10.0004 0.00488281ZM10.0004 1.50488C8.0674 1.50488 6.50036 3.07189 6.50036 5.00488C6.50036 6.93788 8.0674 8.5049 10.0004 8.5049C11.9334 8.5049 13.5004 6.93788 13.5004 5.00488C13.5004 3.07189 11.9334 1.50488 10.0004 1.50488Z" fill="#212121"/>
</g>
<defs>
<clipPath id="clip0_353_3921">
<rect width="20" height="20" fill="white"/>
</clipPath>
</defs>
</svg>
